<svg t="1633744543313" class="icon" viewBox="0 0 1024 1024" version="1.1" xmlns="http://www.w3.org/2000/svg" p-id="10594" width="512" height="512"><path d="M951.296 935.936c-6.144-47.104-19.968-92.672-40.96-135.68-4.096-8.192-8.704-16.384-13.312-24.576-19.968-33.792-44.544-65.024-73.216-93.184-6.144-6.144-12.8-12.288-19.456-17.92-47.104-40.96-101.376-71.68-159.232-90.112 10.24-5.632 20.48-12.288 30.208-19.456 11.264-8.192 21.504-17.408 31.744-27.136 52.224-52.224 80.896-121.344 80.896-195.072s-28.672-143.36-80.896-195.072c-51.2-51.2-118.784-79.872-191.488-80.896h-7.168c-72.192 1.024-140.288 29.696-191.488 80.896-52.224 52.224-80.896 121.344-80.896 195.072s28.672 143.36 80.896 195.072c9.728 9.728 20.48 18.944 31.744 27.136 9.728 7.168 19.968 13.824 30.208 19.456-57.856 18.432-112.128 49.152-159.232 90.112-6.656 5.632-12.8 11.776-19.456 17.92-28.672 28.16-53.248 59.392-73.216 93.184-4.608 8.192-8.704 16.384-13.312 24.576a429.568 429.568 0 0 0-40.96 135.68c-2.048 15.36 8.704 29.184 23.552 31.232h829.44c16.896-2.048 27.648-15.872 25.6-31.232z" fill="#ffffff" p-id="10595"></path></svg>